<svg width="430.1" height="430.1" xmlns="http://www.w3.org/2000/svg">

 <g>
  <title>background</title>
  <rect fill="#ffffff" id="canvas_background" height="432.1" width="432.1" y="-1" x="-1"/>
 </g>
 <g>
  <title>Layer 1</title>
  <path id="LinkedIn__x28_alt_x29_" d="m398.399994,0l-366.599995,0c-17.599999,0 -31.799999,13.8 -31.799999,30.799999l0,368.499989c0,17 14.2,30.800018 31.799999,30.800018l366.600025,0c17.5,0 31.799988,-13.800018 31.799988,-30.800018l0,-368.499989c-0.100006,-16.999999 -14.300018,-30.799999 -31.800018,-30.799999zm-268,360l-65.000008,0l0,-194.199997l65.000008,0l0,194.199997zm-32.499992,-220.699997l-0.400002,0c-21.800003,0 -35.900002,-14.900002 -35.900002,-33.600006c0,-19 14.5,-33.5 36.800003,-33.5c22.199997,0 35.900002,14.5 36.299995,33.5c0,18.700005 -14.099998,33.600006 -36.799995,33.600006zm266.800011,220.699997l-65,0l0,-103.899994c0,-26.099991 -9.399994,-43.900009 -32.899994,-43.900009c-18.000015,0 -28.600006,12 -33.300003,23.600006c-1.700012,4.099991 -2.200012,9.899994 -2.200012,15.699997l0,108.5l-65,0c0,0 0.900009,-176 0,-194.199997l65,0l0,27.5c8.600006,-13.199997 24,-32.100006 58.500015,-32.100006c42.799988,0 74.799988,27.700012 74.799988,87.400009l0.100006,111.399994l0,0zm-133.800018,-166c0.099991,-0.199997 0.300003,-0.399994 0.399994,-0.600006l0,0.600006l-0.399994,0z"/>
 </g>
</svg>